<?xml version="1.0" encoding="UTF-8" standalone="no"?>
<!-- Created with Inkscape (http://www.inkscape.org/) -->

<svg
   width="128"
   height="128"
   viewBox="0 0 33.866666 33.866666"
   version="1.1"
   id="svg1"
   xml:space="preserve"
   inkscape:version="1.4.3 (0d15f75042, 2025-12-25)"
   sodipodi:docname="hecateos.svg"
   inkscape:export-filename="hecateos_ply.png"
   inkscape:export-xdpi="192"
   inkscape:export-ydpi="192"
   xmlns:inkscape="http://www.inkscape.org/namespaces/inkscape"
   xmlns:sodipodi="http://sodipodi.sourceforge.net/DTD/sodipodi-0.dtd"
   xmlns="http://www.w3.org/2000/svg"
   xmlns:svg="http://www.w3.org/2000/svg"><sodipodi:namedview
     id="namedview1"
     pagecolor="#ffffff"
     bordercolor="#000000"
     borderopacity="0.25"
     inkscape:showpageshadow="2"
     inkscape:pageopacity="0.0"
     inkscape:pagecheckerboard="0"
     inkscape:deskcolor="#d1d1d1"
     inkscape:document-units="mm"
     inkscape:zoom="4.1971491"
     inkscape:cx="51.582632"
     inkscape:cy="75.527457"
     inkscape:window-width="2560"
     inkscape:window-height="1315"
     inkscape:window-x="0"
     inkscape:window-y="0"
     inkscape:window-maximized="1"
     inkscape:current-layer="layer1"
     showguides="false"
     inkscape:export-bgcolor="#00000000" /><defs
     id="defs1" /><g
     inkscape:label="Capa 1"
     inkscape:groupmode="layer"
     id="layer1"><path
       style="fill:#800000;stroke-width:0.807411"
       d="m 14.13889,26.860696 c -1.642858,-0.440517 -3.214,-1.10978 -4.2767429,-1.821775 -3.3852473,-2.267978 -5.557484,-6.405088 -5.557484,-10.584443 0,-2.497799 0.6292223,-4.7474392 1.8935042,-6.7697976 1.3034386,-2.0849927 2.9162331,-3.5245654 5.3063267,-4.7364029 1.896508,-0.9615762 3.034932,-1.2341676 5.21339,-1.248322 2.217111,-0.014407 3.462259,0.2450286 5.29088,1.1023911 3.430347,1.608344 5.599544,4.062713 6.847198,7.7473604 1.965471,5.804553 -0.89059,12.561009 -6.440207,15.235313 -2.101241,1.012566 -3.14831,1.279207 -5.290881,1.347349 -1.557425,0.04953 -1.906544,0.01777 -2.985984,-0.271673 z m 4.649838,-1.153614 c 4.456326,-0.713836 8.21485,-4.375981 9.200367,-8.964442 0.252715,-1.176618 0.241667,-3.527252 -0.02254,-4.796203 -0.851406,-4.0891224 -4.075786,-7.5060016 -8.128408,-8.6136821 -1.508636,-0.4123466 -4.102461,-0.4149608 -5.80438,-0.00586 -1.855883,0.4461212 -2.89355,1.0101198 -4.7003051,2.5547375 -2.570231,2.197324 -3.9639715,5.6076986 -3.7680642,9.2201566 0.169882,3.132548 1.2769565,5.503827 3.58502,7.678872 1.6678903,1.571766 3.6252243,2.587112 5.6167283,2.913617 1.023554,0.167811 3.014306,0.174144 4.021582,0.01279 z M 13.446741,24.589661 C 11.738901,23.963007 9.8851744,22.701013 8.8325123,21.448353 7.9322561,20.377055 6.9948165,18.540371 6.5999226,17.074138 6.1202174,15.293002 6.2252036,12.6186 6.8341201,11.108228 7.3794827,9.7554991 9.5433583,9.9236366 9.812484,11.339654 c 0.050358,0.26495 0.011231,0.810838 -0.08825,1.230595 -0.2255553,0.951962 -0.219302,3.297403 0.00955,3.56955 0.091485,0.108814 0.285853,0.197836 0.431927,0.197836 0.251989,0 0.26077,-0.06708 0.171495,-1.310032 -0.07278,-1.013426 -0.04409,-1.502682 0.126749,-2.160919 0.517911,-1.995472 1.84793,-3.6341233 3.639363,-4.4838838 0.576579,-0.2734979 1.080428,-0.5485421 1.119666,-0.611208 0.113787,-0.1817333 -0.07609,-0.5398372 -0.286226,-0.5398372 -0.406399,0 -2.363455,1.09085 -3.102834,1.7295001 C 10.809833,9.8458284 10.304171,10.01207 9.6286764,9.686261 8.9732874,9.3701575 8.5799676,8.62496 8.7093074,7.9444341 8.9124468,6.8756074 11.366165,4.9762623 13.461956,4.2655625 16.40477,3.267631 19.531501,3.5985621 22.251962,5.1958916 23.565136,5.9669254 24.86842,7.2637735 24.993969,7.9243549 25.115478,8.5636822 24.783465,9.300487 24.22146,9.6387015 23.506524,10.068952 23.139165,9.9911597 22.185386,9.2075388 21.073034,8.2936344 19.241301,7.2104605 18.891749,7.2598866 c -0.186805,0.026415 -0.274576,0.1396408 -0.274576,0.3542159 0,0.2636564 0.144652,0.371766 0.881813,0.6590483 0.69037,0.269046 1.09008,0.5508421 1.841107,1.2979814 1.62444,1.6160328 2.185849,3.1047138 2.055899,5.4515998 -0.05673,1.024583 -0.03273,1.311129 0.114467,1.366886 0.627109,0.237535 0.902939,-1.593049 0.539914,-3.583193 -0.203203,-1.113981 -0.20659,-1.306565 -0.0303,-1.723038 0.273368,-0.645801 0.70047,-0.905613 1.488733,-0.905613 0.953097,0 1.346023,0.427516 1.669314,1.816267 0.851789,3.658982 -0.34421,7.604439 -3.084592,10.175701 -1.506735,1.413748 -4.019755,2.727421 -5.232562,2.735305 -0.961354,0.0063 -1.532599,-0.632792 -1.532599,-1.714491 0,-0.735239 0.480682,-1.27727 1.394557,-1.572547 1.33583,-0.431609 3.100579,-1.437421 3.265257,-1.861018 0.09777,-0.251491 -0.02685,-0.607247 -0.212726,-0.607247 -0.07504,0 -0.49628,0.266995 -0.936078,0.593322 -1.173289,0.870577 -2.091725,1.179211 -3.720621,1.250294 -1.188977,0.05188 -1.483067,0.01804 -2.30628,-0.265419 -0.902778,-0.310854 -1.590297,-0.693138 -2.403392,-1.336366 -0.358884,-0.283907 -0.384423,-0.286328 -0.610486,-0.05786 -0.224798,0.227188 -0.208803,0.262441 0.338906,0.746941 0.316161,0.279674 1.048744,0.729575 1.627963,0.999783 2.224693,1.037823 2.264562,1.063008 2.529012,1.597522 0.216785,0.438172 0.231637,0.591929 0.0993,1.027933 -0.353465,1.164511 -1.359613,1.466238 -2.947038,0.883767 z m 1.686531,-1.31011 c -0.03227,-0.215305 -0.224972,-0.34998 -0.754001,-0.526954 -1.851892,-0.619508 -3.749034,-2.014867 -3.913099,-2.878105 -0.175126,-0.921435 0.620632,-1.929939 1.522813,-1.929939 0.555302,0 0.771292,0.103536 1.847535,0.885573 0.976062,0.709248 1.871765,0.990203 3.143398,0.985989 1.172496,-0.0038 2.085539,-0.346124 3.314059,-1.242213 0.634501,-0.462811 0.986304,-0.629349 1.329458,-0.629349 1.31689,0 2.096334,1.321174 1.436722,2.435277 -0.255095,0.430862 -1.55587,1.45741 -2.336699,1.844081 -0.263076,0.130277 -0.814088,0.343489 -1.224471,0.473808 -0.88666,0.28156 -1.09455,0.423646 -0.994898,0.679979 0.101468,0.261018 0.537684,0.239776 1.451915,-0.0707 2.016748,-0.684894 3.567716,-1.91704 4.729352,-3.757168 1.116724,-1.768987 1.362292,-2.587346 1.430923,-4.768615 0.07015,-2.229605 -0.159962,-3.398251 -0.669142,-3.398251 -0.264193,0 -0.278492,0.05086 -0.197635,0.703028 0.35287,2.846107 0.18031,4.459801 -0.55828,5.220758 -0.628731,0.647772 -1.918165,0.462987 -2.371937,-0.339913 -0.108646,-0.192237 -0.167869,-0.945128 -0.17063,-2.169169 -0.004,-1.811698 -0.01786,-1.901326 -0.409563,-2.665381 -0.591616,-1.153991 -1.714036,-2.2159807 -2.958141,-2.798874 -1.205883,-0.5649871 -1.52649,-0.9515955 -1.506864,-1.8170745 0.0116,-0.5117538 0.08697,-0.6639134 0.525234,-1.0603556 0.480302,-0.4344737 0.55377,-0.4579438 1.19783,-0.3826499 0.982717,0.1148836 2.467106,0.8639161 3.465907,1.7489184 0.830446,0.73583 1.219643,0.8808716 1.347407,0.5021381 0.0333,-0.09874 -0.305371,-0.5307707 -0.752618,-0.9600825 -1.009786,-0.9692931 -2.865042,-1.892454 -4.440674,-2.2096432 -1.891285,-0.3807327 -4.337204,-0.00393 -6.180451,0.952166 -1.194077,0.6193594 -2.434187,1.7095738 -2.434187,2.1399615 0,0.5115225 0.351038,0.3954436 1.267054,-0.4189819 0.974925,-0.866803 2.815363,-1.8012437 3.547656,-1.8012437 0.680713,0 1.214048,0.3077338 1.475354,0.8512766 0.514657,1.0705405 0.168998,1.7139625 -1.317818,2.4530326 -1.291076,0.6417722 -1.766201,1.0170581 -2.408462,1.9023711 -0.815913,1.124682 -1.080094,2.161807 -1.038252,4.075982 l 0.03459,1.582839 -0.443046,0.392333 C 10.570233,17.770897 9.6909537,17.82774 9.1547586,17.41142 8.3534816,16.789279 8.0297697,14.692435 8.4322897,12.731595 8.679751,11.526108 8.5977239,11.179006 8.1334263,11.466949 c -0.3324312,0.206163 -0.544705,1.248859 -0.5598128,2.749823 -0.030403,3.020352 0.8860318,5.201165 3.0096815,7.162056 1.289208,1.190402 3.181,2.172107 4.210817,2.185113 0.316029,0.004 0.374976,-0.04543 0.33916,-0.28439 z m 0.109196,-4.523373 c -2.038449,-0.810118 -3.038563,-2.429238 -2.905194,-4.703321 0.10513,-1.792626 1.003792,-3.090396 2.668537,-3.853682 1.588989,-0.7285526 3.784768,-0.3441903 5.081473,0.889491 0.895439,0.851919 1.21784,1.63867 1.284308,3.134074 0.05449,1.225865 0.0345,1.348909 -0.351361,2.162813 -0.810058,1.708678 -2.037909,2.510271 -3.963184,2.587335 -0.909916,0.03642 -1.292652,-0.0093 -1.814579,-0.21671 z m 2.628561,-1.07744 c 0.669236,-0.183805 1.434909,-0.850169 1.90349,-1.656604 0.33088,-0.569445 0.400466,-0.840921 0.401518,-1.566424 0.0055,-3.79526 -5.168232,-4.7636764 -6.440087,-1.205451 -0.937266,2.622157 1.440436,5.168567 4.135079,4.428479 z m -1.144883,-1.3595 c -0.03452,-0.100358 -0.08104,-0.329979 -0.103356,-0.51027 -0.03837,-0.310074 -0.08276,-0.325843 -0.820635,-0.29159 -0.789633,0.03666 -1.006629,-0.113592 -0.542652,-0.375737 0.610272,-0.344805 0.611311,-0.348501 0.246917,-0.878523 -0.315119,-0.458353 -0.46426,-1.005413 -0.274098,-1.005413 0.04101,0 0.255448,0.09233 0.476524,0.20517 0.392724,0.200462 0.405244,0.196625 0.545359,-0.167141 0.155294,-0.403177 0.509287,-0.84149 0.679607,-0.84149 0.05832,0 0.125172,0.195844 0.148554,0.435209 l 0.04251,0.435207 0.697206,-0.04469 c 0.847329,-0.05431 1.008494,0.131306 0.460943,0.530895 -0.355157,0.259185 -0.384846,0.326752 -0.223628,0.508924 0.285561,0.322674 0.655259,1.095848 0.566079,1.183876 -0.04374,0.04318 -0.285179,-0.01828 -0.536514,-0.13659 l -0.456978,-0.215099 -0.240593,0.526644 c -0.29085,0.636651 -0.573093,0.908445 -0.665247,0.640619 z m 0.517556,-1.753398 c 0.11378,-0.178342 0.09609,-0.282979 -0.07668,-0.45352 -0.406408,-0.401154 -1.012746,0.123126 -0.64636,0.558888 0.210942,0.250884 0.524956,0.205123 0.723047,-0.105366 z"
       id="path1" /><path
       d="m 4.9077816,32.43938 v 1.53837 c 0,0.350253 0,0.363989 -0.041206,0.425798 -0.054942,0.06868 -0.1854285,0.09615 -0.5768885,0.09615 h -0.123619 v 0.322783 H 6.41868 V 34.499696 H 6.2950611 c -0.3914601,0 -0.5219468,-0.02747 -0.5768885,-0.09615 -0.041206,-0.06181 -0.041206,-0.06868 -0.041206,-0.425798 v -3.269035 c 0,-0.357122 0,-0.363989 0.041206,-0.425799 0.061809,-0.07555 0.1854284,-0.09615 0.5768885,-0.09615 H 6.41868 V 29.863985 H 4.1935387 v 0.322783 h 0.096148 c 0.39146,0 0.515079,0.0206 0.5768885,0.09615 0.041206,0.06181 0.041206,0.07554 0.041206,0.425799 v 1.359808 H 2.6070953 v -1.359808 c 0,-0.350254 0,-0.363989 0.048074,-0.425799 0.054942,-0.07555 0.1785607,-0.09615 0.5700208,-0.09615 H 3.3556768 V 29.863985 H 1.0961969 v 0.322783 h 0.123619 c 0.39146,0 0.515079,0.0206 0.5768885,0.09615 0.041206,0.06181 0.041206,0.07554 0.041206,0.425799 v 3.269035 c 0,0.343386 0,0.363989 -0.041206,0.425798 -0.054942,0.06868 -0.1854285,0.09615 -0.5768885,0.09615 h -0.123619 v 0.322783 H 3.3556768 V 34.499696 H 3.2251902 c -0.3914601,-0.0069 -0.5150791,-0.02747 -0.5700208,-0.09615 -0.048074,-0.06181 -0.048074,-0.07554 -0.048074,-0.425798 v -1.53837 z"
       id="text7"
       style="font-size:6.86772px;font-family:C059;-inkscape-font-specification:C059;fill:#800000;stroke-width:0.572309"
       transform="scale(1.0449904,0.9569466)"
       aria-label="H" /><path
       d="M 10.944509,29.863985 H 6.8170094 v 0.322783 h 0.123619 c 0.39146,0.0069 0.5219467,0.02747 0.5768885,0.09615 0.041206,0.06181 0.041206,0.07554 0.041206,0.425799 v 3.269035 c 0,0.350253 0,0.363989 -0.041206,0.425798 -0.054942,0.06868 -0.1854285,0.09615 -0.5768885,0.09615 h -0.123619 v 0.322783 H 11.03379 l 0.137354,-1.833681 h -0.30218 c -0.260973,1.222454 -0.54255,1.483428 -1.5933108,1.510898 H 8.8223837 c -0.4120632,-0.01373 -0.515079,-0.08241 -0.4944759,-0.32965 v -1.751269 h 0.1373544 c 0.7073752,-0.02747 0.9614809,0.226635 0.9889517,0.988952 H 9.7769968 V 31.155117 H 9.4542139 c -0.041206,0.673036 -0.3090474,0.940877 -0.9614808,0.940877 H 8.3279078 v -1.56584 c -0.00687,-0.288444 0.061809,-0.336518 0.4326664,-0.343386 h 0.3571215 c 1.1263063,-0.0069 1.4078823,0.24037 1.6276493,1.428486 h 0.295312 z"
       id="text6"
       style="font-size:6.86772px;font-family:C059;-inkscape-font-specification:C059;fill:#800000;stroke-width:0.572309"
       transform="scale(1.0449904,0.9569466)"
       aria-label="E" /><path
       d="m 13.29327,32.576735 v -1.86802 c 0,-0.350254 0,-0.363989 0.04807,-0.425799 0.04807,-0.06868 0.178561,-0.08928 0.570021,-0.09615 h 0.130486 v -0.322783 h -2.25948 v 0.322783 h 0.123619 c 0.39146,0.0069 0.521947,0.02747 0.576889,0.09615 0.04121,0.06181 0.04121,0.08241 0.04121,0.425799 v 3.269035 c 0,0.343386 0,0.363989 -0.04121,0.425798 -0.05494,0.06868 -0.185429,0.09615 -0.576889,0.09615 h -0.123619 v 0.322783 h 2.25948 v -0.322783 h -0.130486 c -0.39146,-0.0069 -0.515079,-0.02747 -0.570021,-0.09615 -0.04807,-0.06181 -0.04807,-0.07554 -0.04807,-0.425798 v -0.872201 l 0.796655,-0.803523 1.194984,1.751269 c 0.109883,0.164825 0.137354,0.219767 0.137354,0.288444 0,0.116751 -0.130487,0.157957 -0.467005,0.157957 h -0.212899 v 0.322783 h 2.34876 v -0.322783 h -0.130487 c -0.39146,-0.0069 -0.467005,-0.04121 -0.673036,-0.343386 l -1.661989,-2.396834 1.023291,-1.02329 c 0.32965,-0.350254 0.748581,-0.549418 1.160644,-0.549418 v -0.322783 h -2.115257 v 0.322783 h 0.171693 c 0.315915,0 0.446401,0.06181 0.446401,0.206032 0,0.09615 -0.137354,0.288444 -0.336518,0.494476 z"
       id="text5"
       style="font-size:6.86772px;font-family:C059;-inkscape-font-specification:C059;fill:#800000;stroke-width:0.572309"
       transform="scale(1.0449904,0.9569466)"
       aria-label="K" /><path
       d="m 20.888977,34.135707 c 0.04121,0.109884 0.05494,0.15109 0.05494,0.185429 0,0.109883 -0.171693,0.17856 -0.425799,0.17856 h -0.288444 v 0.322783 h 2.128993 v -0.322783 h -0.09615 c -0.357121,-0.0069 -0.418931,-0.04807 -0.576889,-0.439534 l -1.751266,-4.292325 h -0.288444 l -1.579576,4.003881 c -0.185428,0.535682 -0.363989,0.700508 -0.755449,0.727978 h -0.02747 v 0.322783 h 1.819946 v -0.322783 h -0.137355 c -0.370857,0 -0.556285,-0.130486 -0.556285,-0.39146 0,-0.08928 0.0206,-0.171693 0.06181,-0.288444 l 0.295312,-0.789788 0.830993,-2.135861 0.848164,2.135861 z"
       id="text4"
       style="font-size:6.86772px;font-family:C059;-inkscape-font-specification:C059;fill:#800000;stroke-width:0.572309"
       transform="scale(1.0449904,0.9569466)"
       aria-label="A"
       sodipodi:nodetypes="cssccccccccccccccssccccc" /><path
       d="m 26.424358,29.863985 h -4.113764 l -0.103016,1.909227 h 0.295312 c 0.04807,-0.343386 0.103016,-0.60436 0.185428,-0.824127 0.178561,-0.508211 0.508212,-0.762317 0.975217,-0.762317 0.226634,0 0.322782,0.07554 0.322782,0.247238 v 3.543744 c 0,0.350253 0,0.363989 -0.04121,0.425798 -0.05494,0.06868 -0.185428,0.09615 -0.576888,0.09615 h -0.178561 v 0.322783 h 2.355628 v -0.322783 h -0.178561 c -0.384592,0 -0.515079,-0.02747 -0.570021,-0.09615 -0.04121,-0.06181 -0.04121,-0.07554 -0.04121,-0.425798 v -3.543744 c 0,-0.171693 0.09615,-0.247238 0.322783,-0.247238 0.418931,0 0.755449,0.233503 0.927142,0.645566 0.103016,0.254105 0.171693,0.549417 0.226635,0.940878 h 0.295312 z"
       id="text3"
       style="font-size:6.86772px;font-family:C059;-inkscape-font-specification:C059;fill:#800000;stroke-width:0.572309"
       transform="scale(1.0449904,0.9569466)"
       aria-label="T" /><path
       d="m 31.080673,29.863985 h -4.1275 v 0.322783 h 0.123619 c 0.39146,0.0069 0.521947,0.02747 0.576889,0.09615 0.04121,0.06181 0.04121,0.07554 0.04121,0.425799 v 3.269035 c 0,0.350253 0,0.363989 -0.04121,0.425798 -0.05494,0.06868 -0.185429,0.09615 -0.576889,0.09615 h -0.123619 v 0.322783 h 4.21678 l 0.137355,-1.833681 h -0.30218 c -0.260973,1.222454 -0.54255,1.483428 -1.593311,1.510898 h -0.45327 c -0.412063,-0.01373 -0.515079,-0.08241 -0.494475,-0.32965 v -1.751269 h 0.137354 c 0.707375,-0.02747 0.961481,0.226635 0.988952,0.988952 h 0.322783 v -2.252612 h -0.322783 c -0.04121,0.673036 -0.309048,0.940877 -0.961481,0.940877 h -0.164825 v -1.56584 c -0.0069,-0.288444 0.06181,-0.336518 0.432666,-0.343386 h 0.357121 c 1.126306,-0.0069 1.407883,0.24037 1.62765,1.428486 h 0.295312 z"
       id="text2"
       style="font-size:6.86772px;font-family:C059;-inkscape-font-specification:C059;fill:#800000;stroke-width:0.572309"
       transform="scale(1.0449904,0.9569466)"
       aria-label="E" /></g></svg>
